HIERARCHY
ROOT Hips
{
 OFFSET 0.000000 0.000000 0.000000
 CHANNELS 6 Xposition Yposition Zposition Yrotation Xrotation Zrotation
 JOINT Chest
 {
  OFFSET 0.000000 9.581000 -0.001100
  CHANNELS 3 Yrotation Xrotation Zrotation
  JOINT Chest2
  {
   OFFSET 0.000000 9.561100 0.002200
   CHANNELS 3 Yrotation Xrotation Zrotation
   JOINT Chest3
   {
    OFFSET 0.000000 9.521100 0.000000
    CHANNELS 3 Yrotation Xrotation Zrotation
    JOINT Chest4
    {
     OFFSET 0.000000 9.511400 0.000000
     CHANNELS 3 Yrotation Xrotation Zrotation
     JOINT Neck
     {
      OFFSET 0.000000 14.375100 0.000000
      CHANNELS 3 Yrotation Xrotation Zrotation
      JOINT Head
      {
       OFFSET 0.000000 8.901200 0.004600
       CHANNELS 3 Yrotation Xrotation Zrotation
       End Site
       {
        OFFSET 0.000000 16.962200 0.002400
       }
      }
     }
     JOINT RightCollar
     {
      OFFSET -2.920100 9.518800 0.000000
      CHANNELS 3 Yrotation Xrotation Zrotation
      JOINT RightShoulder
      {
       OFFSET -13.664500 0.000000 0.000000
       CHANNELS 3 Yrotation Xrotation Zrotation
       JOINT RightElbow
       {
        OFFSET 0.000000 -29.999200 0.000000
        CHANNELS 3 Yrotation Xrotation Zrotation
        JOINT RightWrist
        {
         OFFSET 0.000000 -24.253600 0.000000
         CHANNELS 3 Yrotation Xrotation Zrotation
         End Site
         {
          OFFSET 0.000000 -17.918900 0.000000
         }
        }
       }
      }
     }
     JOINT LeftCollar
     {
      OFFSET 2.920100 9.518800 0.000000
      CHANNELS 3 Yrotation Xrotation Zrotation
      JOINT LeftShoulder
      {
       OFFSET 13.664500 0.000000 0.000000
       CHANNELS 3 Yrotation Xrotation Zrotation
       JOINT LeftElbow
       {
        OFFSET 0.000000 -29.999200 0.000000
        CHANNELS 3 Yrotation Xrotation Zrotation
        JOINT LeftWrist
        {
         OFFSET 0.000000 -24.253600 0.000000
         CHANNELS 3 Yrotation Xrotation Zrotation
         End Site
         {
          OFFSET 0.000000 -17.918900 0.000000
         }
        }
       }
      }
     }
    }
   }
  }
 }
 JOINT RightHip
 {
  OFFSET -7.797300 0.005300 0.000500
  CHANNELS 3 Yrotation Xrotation Zrotation
  JOINT RightKnee
  {
   OFFSET 0.000000 -40.663400 -0.000500
   CHANNELS 3 Yrotation Xrotation Zrotation
   JOINT RightAnkle
   {
    OFFSET 0.000000 -39.523700 -0.000900
    CHANNELS 3 Yrotation Xrotation Zrotation
    JOINT RightToe
    {
     OFFSET 0.000000 -6.418000 14.485300
     CHANNELS 3 Yrotation Xrotation Zrotation
     End Site
     {
      OFFSET 0.000000 -1.465200 6.326400
     }
    }
   }
  }
 }
 JOINT LeftHip
 {
  OFFSET 7.797300 0.005300 0.000500
  CHANNELS 3 Yrotation Xrotation Zrotation
  JOINT LeftKnee
  {
   OFFSET 0.000000 -40.663400 -0.000500
   CHANNELS 3 Yrotation Xrotation Zrotation
   JOINT LeftAnkle
   {
    OFFSET 0.000000 -39.523700 -0.000900
    CHANNELS 3 Yrotation Xrotation Zrotation
    JOINT LeftToe
    {
     OFFSET 0.000000 -6.418000 14.485300
     CHANNELS 3 Yrotation Xrotation Zrotation
     End Site
     {
      OFFSET 0.000000 -1.465200 6.326400
     }
    }
   }
  }
 }
}
MOTION
Frames: 15
Frame Time: 0.008333
-23.615349 126.409630 53.890282 178.764251 -28.028637 -3.144517 -1.112060 19.476581 0.972458 -0.152271 2.339614 0.139759 -0.243187 3.881606 0.216422 -0.976937 16.828882 0.856753 4.063452 18.110080 -1.315733 4.635904 -6.504096 -2.341263 -7.415383 -4.795900 -1.126607 2.802077 -5.227723 -5.631264 69.030777 -69.043892 -40.502237 0.270618 3.441932 -25.363480 -6.511332 -3.216802 0.871144 3.793545 -6.066047 7.215312 -48.333976 -78.445254 34.937242 -26.964925 6.657695 14.495796 -8.761662 -53.322283 6.103743 -11.760391 70.778174 -14.544517 17.106326 11.939754 4.789850 -0.004979 -0.006823 -0.002206 -8.078462 -52.904091 -1.502540 34.507959 64.683211 24.831128 -2.287297 37.712907 2.070853 0.009135 -0.002308 0.004047
-23.614550 126.409371 53.890249 178.764209 -28.029440 -3.144307 -1.113472 19.467180 0.974748 -0.153677 2.342109 0.140549 -0.241760 3.873528 0.216279 -0.977210 16.822359 0.859233 4.061772 18.120187 -1.318287 4.634991 -6.499411 -2.342489 -7.417229 -4.779204 -1.129910 2.788807 -5.224423 -5.619330 69.021540 -69.046801 -40.499142 0.258304 3.431169 -25.355976 -6.505304 -3.196872 0.867744 3.798634 -6.075049 7.208819 -48.276475 -78.434539 34.873403 -26.956844 6.659947 14.493536 -8.765881 -53.321366 6.105629 -11.744177 70.779709 -14.533059 17.124149 11.938907 4.792134 -0.002662 -0.006025 -0.001179 -8.076021 -52.907795 -1.496584 34.537911 64.685565 24.839675 -2.279220 37.715720 2.096768 0.003042 -0.004399 0.001348
-23.613452 126.409284 53.889758 178.760592 -28.032278 -3.144266 -1.114344 19.456653 0.987729 -0.151016 2.353024 0.129125 -0.245198 3.854667 0.227678 -0.979543 16.827768 0.855429 4.061920 18.124943 -1.325371 4.637880 -6.518703 -2.344540 -7.414125 -4.767899 -1.140001 2.779135 -5.226354 -5.609091 68.978938 -69.058002 -40.463555 0.282075 3.431566 -25.342602 -6.497800 -3.187824 0.852148 3.799890 -6.080795 7.209635 -48.192835 -78.423952 34.788486 -26.958776 6.653498 14.491772 -8.767367 -53.317618 6.108536 -11.715462 70.785019 -14.505490 17.128038 11.933659 4.790127 0.000233 -0.005127 0.000103 -8.082912 -52.909039 -1.479683 34.538411 64.692296 24.830180 -2.285094 37.726663 2.091459 0.003231 -0.005399 0.001431
-23.614055 126.408131 53.891005 178.763202 -28.020750 -3.137259 -1.118259 19.442085 0.984901 -0.153800 2.347213 0.131957 -0.241813 3.852651 0.227363 -0.981040 16.798404 0.868529 4.061227 18.141458 -1.336980 4.660199 -6.553065 -2.352125 -7.415800 -4.733826 -1.162533 2.767665 -5.226323 -5.600033 68.982882 -69.053141 -40.460108 0.287471 3.431347 -25.339574 -6.497765 -3.161180 0.828858 3.800258 -6.079793 7.205391 -48.139883 -78.414550 34.734081 -26.958828 6.649701 14.488516 -8.765754 -53.329024 6.100749 -11.718977 70.784967 -14.509136 17.123443 11.931811 4.787161 0.000275 -0.004073 0.000122 -8.090537 -52.920634 -1.474471 34.541741 64.690133 24.815529 -2.278533 37.733256 2.103016 0.001852 -0.004334 0.000820
-23.614512 126.407560 53.891245 178.766327 -28.014361 -3.131264 -1.122882 19.434972 0.979038 -0.150957 2.341987 0.137040 -0.240819 3.847096 0.229497 -0.985065 16.793022 0.869554 4.065225 18.133113 -1.338558 4.663416 -6.550684 -2.356253 -7.416531 -4.724163 -1.167392 2.771054 -5.221277 -5.586294 68.989030 -69.036449 -40.473422 0.281842 3.429854 -25.333026 -6.487582 -3.162435 0.818483 3.786534 -6.069415 7.202510 -48.091126 -78.407845 34.690382 -26.940349 6.654571 14.502310 -8.767466 -53.333080 6.090097 -11.699982 70.783607 -14.491642 17.125379 11.929325 4.786234 -0.002570 -0.003593 -0.001139 -8.090389 -52.926731 -1.477500 34.532571 64.680145 24.789382 -2.261023 37.758189 2.125298 -0.005557 -0.007680 -0.002462
-23.614606 126.407161 53.891386 178.770965 -28.007359 -3.128187 -1.123096 19.426334 0.983009 -0.151274 2.339105 0.137342 -0.244253 3.845966 0.226080 -0.986253 16.787926 0.871609 4.073378 18.119902 -1.337833 4.656342 -6.534058 -2.357145 -7.412382 -4.720460 -1.167247 2.772188 -5.214680 -5.588017 68.986381 -69.031104 -40.477827 0.282291 3.414387 -25.350095 -6.487928 -3.154386 0.811126 3.780196 -6.071533 7.202368 -48.032613 -78.402671 34.639567 -26.937714 6.652196 14.506028 -8.768258 -53.337604 6.082742 -11.692433 70.781578 -14.485173 17.132776 11.929401 4.788633 -0.002448 -0.002815 -0.001084 -8.112469 -52.931316 -1.458252 34.527811 64.679434 24.766869 -2.260864 37.774690 2.125967 -0.003397 -0.002230 -0.001505
-23.613935 126.407052 53.891414 178.776030 -28.000573 -3.130034 -1.125221 19.417978 0.986776 -0.151390 2.337157 0.137796 -0.246536 3.847932 0.223497 -0.986471 16.786416 0.872289 4.082866 18.101480 -1.334989 4.662612 -6.543168 -2.359832 -7.409086 -4.728024 -1.164384 2.770956 -5.203749 -5.591148 68.991541 -69.028527 -40.483643 0.280355 3.412603 -25.353644 -6.480786 -3.159299 0.808151 3.765777 -6.064948 7.203586 -47.971808 -78.399277 34.593462 -26.943956 6.645893 14.504047 -8.773785 -53.338854 6.086356 -11.716649 70.776703 -14.515186 17.147747 11.924878 4.795945 -0.003745 -0.000823 -0.001659 -8.112849 -52.932130 -1.444742 34.491883 64.680753 24.724390 -2.266304 37.781043 2.127417 0.001271 -0.002998 0.000563
-23.613977 126.407484 53.890582 178.775884 -27.999354 -3.125337 -1.128530 19.413937 0.985302 -0.151830 2.335437 0.137551 -0.247046 3.845305 0.223366 -0.989583 16.781202 0.871440 4.090950 18.091308 -1.335691 4.679348 -6.570807 -2.364114 -7.393244 -4.730405 -1.160700 2.772043 -5.190370 -5.597128 68.992930 -69.022906 -40.487723 0.277431 3.412742 -25.366541 -6.472622 -3.157657 0.802328 3.756213 -6.053639 7.203936 -47.938517 -78.392784 34.576862 -26.951299 6.634250 14.496951 -8.766532 -53.336503 6.080652 -11.721163 70.776665 -14.521035 17.146919 11.918969 4.794942 -0.002086 0.000885 -0.000924 -8.085991 -52.926522 -1.460892 34.432869 64.687326 24.671865 -2.239842 37.778689 2.136005 0.001460 0.000227 0.000647
-23.613978 126.407749 53.890335 178.781584 -27.993932 -3.124178 -1.131269 19.407297 0.985142 -0.151776 2.333820 0.137457 -0.246917 3.842644 0.223252 -0.989804 16.776203 0.871047 4.108860 18.061244 -1.333658 4.665861 -6.547018 -2.357200 -7.396107 -4.724997 -1.159520 2.800052 -5.182713 -5.597338 68.985813 -69.019261 -40.505281 0.275099 3.409807 -25.368607 -6.470370 -3.162549 0.807537 3.748010 -6.037720 7.197664 -47.933211 -78.389548 34.575411 -26.955797 6.630244 14.494355 -8.766806 -53.340477 6.071781 -11.723089 70.775001 -14.523112 17.195431 11.919963 4.798199 0.006004 0.000274 0.002660 -8.061087 -52.922564 -1.480894 34.390525 64.690181 24.642489 -2.243573 37.765295 2.129318 0.000604 0.005152 0.000268
-23.614367 126.408293 53.889606 178.780919 -27.992040 -3.118264 -1.124946 19.402718 0.983959 -0.151606 2.332308 0.137556 -0.246883 3.840213 0.223362 -0.989372 16.771677 0.872194 4.109133 18.057827 -1.333255 4.673429 -6.561411 -2.357600 -7.398421 -4.726351 -1.157573 2.802092 -5.169499 -5.600891 68.993432 -69.026591 -40.515622 0.270730 3.409298 -25.368487 -6.477073 -3.156030 0.807121 3.752346 -6.032263 7.201875 -47.951849 -78.385877 34.585493 -26.947515 6.626033 14.497823 -8.757579 -53.342424 6.065905 -11.750748 70.774228 -14.548539 17.171227 11.921071 4.786558 0.001246 -0.001965 0.000552 -8.030940 -52.916169 -1.504397 34.362147 64.689066 24.624134 -2.246031 37.753578 2.126143 -0.000747 0.006874 -0.000331
-23.614880 126.408690 53.889054 178.783224 -27.988629 -3.113765 -1.124611 19.397356 0.980563 -0.151290 2.330805 0.137491 -0.246345 3.838133 0.223287 -0.987593 16.767515 0.872699 4.105558 18.062551 -1.331464 4.686230 -6.585188 -2.361345 -7.399223 -4.729588 -1.150452 2.802459 -5.155077 -5.608514 68.996910 -69.032547 -40.520497 0.270248 3.412401 -25.372999 -6.481130 -3.149592 0.808035 3.752524 -6.032731 7.206532 -47.936523 -78.375842 34.565071 -26.941066 6.622138 14.506049 -8.749371 -53.347442 6.059787 -11.755265 70.778905 -14.559966 17.164418 11.915779 4.792002 -0.000406 -0.003021 -0.000180 -8.011286 -52.913632 -1.523263 34.344584 64.685606 24.613779 -2.250644 37.746177 2.119216 -0.001642 0.006626 -0.000727
-23.615593 126.408887 53.888742 178.790393 -27.982796 -3.111230 -1.126889 19.393212 0.980977 -0.151144 2.330903 0.137633 -0.238540 3.851125 0.226915 -0.994510 16.754412 0.871237 4.109646 18.048734 -1.332411 4.699022 -6.622791 -2.366893 -7.403753 -4.742345 -1.144597 2.801701 -5.139379 -5.617193 68.991163 -69.039227 -40.512632 0.270268 3.411260 -25.386394 -6.483349 -3.155617 0.805949 3.755526 -6.033658 7.211169 -47.916585 -78.375751 34.533502 -26.945068 6.613386 14.504022 -8.741264 -53.353722 6.047742 -11.751654 70.781305 -14.557257 17.169748 11.913460 4.793047 0.001954 -0.003510 0.000866 -8.005597 -52.916747 -1.535221 34.376698 64.674580 24.641390 -2.266434 37.747022 2.118240 -0.003362 0.005395 -0.001490
-23.615680 126.409109 53.888180 178.794139 -27.978124 -3.111643 -1.124347 19.397575 0.984418 -0.150955 2.332379 0.138084 -0.235524 3.853970 0.227004 -0.994022 16.758019 0.874510 4.109785 18.026420 -1.334715 4.691134 -6.624879 -2.365584 -7.413700 -4.768628 -1.133467 2.795086 -5.123709 -5.619327 69.005450 -69.040328 -40.519984 0.262237 3.404327 -25.395060 -6.487508 -3.176498 0.804874 3.761581 -6.029550 7.219270 -47.900677 -78.381576 34.504349 -26.948464 6.610518 14.508973 -8.735956 -53.356541 6.045778 -11.751702 70.781469 -14.555910 17.143272 11.911641 4.791245 -0.000095 -0.003346 -0.000042 -8.004438 -52.919590 -1.537933 34.418068 64.665834 24.678085 -2.284740 37.746867 2.112241 -0.003796 0.006196 -0.001682
-23.615819 126.409277 53.887391 178.797433 -27.973792 -3.112306 -1.119007 19.403903 0.989415 -0.140033 2.344935 0.139314 -0.244430 3.843628 0.225474 -0.991317 16.763324 0.878569 4.108515 18.003793 -1.333942 4.689344 -6.649906 -2.364561 -7.423745 -4.792860 -1.122573 2.758075 -5.105611 -5.613892 69.056796 -69.040472 -40.540203 0.268379 3.395754 -25.397628 -6.484803 -3.195787 0.802841 3.746981 -6.024707 7.228026 -47.890255 -78.380707 34.495562 -26.939936 6.607752 14.509465 -8.720842 -53.363306 6.034834 -11.760555 70.783818 -14.558669 17.141807 11.913626 4.792367 0.000485 -0.004396 0.000215 -8.003483 -52.921555 -1.538793 34.444145 64.655045 24.696315 -2.294139 37.753486 2.116748 -0.005381 0.004761 -0.002384
-23.615708 126.409247 53.886669 178.802969 -27.967683 -3.116234 -1.111834 19.408134 0.995305 -0.142493 2.346500 0.139724 -0.244124 3.844430 0.225982 -0.979628 16.772963 0.884159 4.100193 17.976353 -1.331375 4.684020 -6.672081 -2.360171 -7.437594 -4.817718 -1.112908 2.742582 -5.098733 -5.618598 69.046306 -69.053936 -40.521321 0.267058 3.396409 -25.404332 -6.498212 -3.220936 0.803587 3.746706 -6.016531 7.235961 -47.875493 -78.380388 34.477683 -26.931165 6.609804 14.509505 -8.725210 -53.369937 6.035047 -11.758028 70.784912 -14.556699 17.159954 11.912596 4.798673 0.002802 -0.005418 0.001241 -8.009054 -52.926504 -1.532759 34.471938 64.641394 24.715348 -2.306197 37.767911 2.119140 -0.006008 0.001271 -0.002662
